<?xml version="1.0" standalone="no"?><!DOCTYPE svg PUBLIC "-//W3C//DTD SVG 1.1//EN" "http://www.w3.org/Graphics/SVG/1.1/DTD/svg11.dtd"><svg t="1698478771947" class="icon" viewBox="0 0 1024 1024" version="1.1" xmlns="http://www.w3.org/2000/svg" p-id="24367" xmlns:xlink="http://www.w3.org/1999/xlink" width="88" height="88"><path d="M793.5 87.4c-4.3 0-8.6 0.4-12.9 1.9l-256.1 85.4c-4.3 1.6-8.2 1.9-12.5 1.9-4.3 0-8.2-0.4-12.5-1.9L243.4 89.3c-4.3-1.6-8.6-1.9-12.5-1.9-26.5 0-47.2 27.7-35.9 54.2l245.2 573.8 31.2 72.9 5.1 11.7c6.6 16 21 23.8 35.9 23.8 14.4 0 28.8-7.8 35.9-23.8l5.1-11.7 31.2-72.9L829 141.6c11.2-26.9-9.4-54.2-35.5-54.2z" fill="#009F72" p-id="24368"></path><path d="M624.3 730.9l-0.5 1.2-31.3 73.1-5.1 11.9c-13.3 30.4-42.1 49.3-74.9 49.3-33.6 0-62.5-19.2-75-49.5l-5.2-11.9-31.3-72.8-0.6-1.5c-52.8 20.5-87.5 55-87.5 94.2 0 62.8 89.1 113.8 199.1 113.8s199.1-50.9 199.1-113.8c0-39-34.4-73.5-86.8-94z" fill="#F9DB88" p-id="24369"></path></svg>